<svg xmlns="http://www.w3.org/2000/svg" version="1.1" xmlns:xlink="http://www.w3.org/1999/xlink" xmlns:svgjs="http://svgjs.dev/svgjs" viewBox="0 0 1422 800" opacity="0.24"><g stroke-width="1" stroke="hsl(205, 69%, 50%)" fill="none" stroke-linecap="butt"><line x1="128" y1="0" x2="0" y2="128"></line><line x1="256" y1="0" x2="128" y2="128"></line><line x1="256" y1="0" x2="384" y2="128"></line><line x1="384" y1="0" x2="512" y2="128"></line><line x1="640" y1="0" x2="512" y2="128"></line><line x1="768" y1="0" x2="640" y2="128"></line><line x1="896" y1="0" x2="768" y2="128"></line><line x1="1024" y1="0" x2="896" y2="128"></line><line x1="1024" y1="0" x2="1152" y2="128"></line><line x1="1152" y1="0" x2="1280" y2="128"></line><line x1="1280" y1="0" x2="1408" y2="128"></line><line x1="1408" y1="0" x2="1536" y2="128"></line><line x1="0" y1="128" x2="128" y2="256"></line><line x1="256" y1="128" x2="128" y2="256"></line><line x1="256" y1="128" x2="384" y2="256"></line><line x1="384" y1="128" x2="512" y2="256"></line><line x1="640" y1="128" x2="512" y2="256"></line><line x1="768" y1="128" x2="640" y2="256"></line><line x1="896" y1="128" x2="768" y2="256"></line><line x1="1024" y1="128" x2="896" y2="256"></line><line x1="1152" y1="128" x2="1024" y2="256"></line><line x1="1152" y1="128" x2="1280" y2="256"></line><line x1="1280" y1="128" x2="1408" y2="256"></line><line x1="1408" y1="128" x2="1536" y2="256"></line><line x1="0" y1="256" x2="128" y2="384"></line><line x1="256" y1="256" x2="128" y2="384"></line><line x1="384" y1="256" x2="256" y2="384"></line><line x1="384" y1="256" x2="512" y2="384"></line><line x1="640" y1="256" x2="512" y2="384"></line><line x1="640" y1="256" x2="768" y2="384"></line><line x1="896" y1="256" x2="768" y2="384"></line><line x1="896" y1="256" x2="1024" y2="384"></line><line x1="1024" y1="256" x2="1152" y2="384"></line><line x1="1280" y1="256" x2="1152" y2="384"></line><line x1="1280" y1="256" x2="1408" y2="384"></line><line x1="1536" y1="256" x2="1408" y2="384"></line><line x1="128" y1="384" x2="0" y2="512"></line><line x1="256" y1="384" x2="128" y2="512"></line><line x1="384" y1="384" x2="256" y2="512"></line><line x1="512" y1="384" x2="384" y2="512"></line><line x1="512" y1="384" x2="640" y2="512"></line><line x1="640" y1="384" x2="768" y2="512"></line><line x1="768" y1="384" x2="896" y2="512"></line><line x1="896" y1="384" x2="1024" y2="512"></line><line x1="1024" y1="384" x2="1152" y2="512"></line><line x1="1280" y1="384" x2="1152" y2="512"></line><line x1="1408" y1="384" x2="1280" y2="512"></line><line x1="1408" y1="384" x2="1536" y2="512"></line><line x1="0" y1="512" x2="128" y2="640"></line><line x1="128" y1="512" x2="256" y2="640"></line><line x1="256" y1="512" x2="384" y2="640"></line><line x1="512" y1="512" x2="384" y2="640"></line><line x1="640" y1="512" x2="512" y2="640"></line><line x1="640" y1="512" x2="768" y2="640"></line><line x1="896" y1="512" x2="768" y2="640"></line><line x1="1024" y1="512" x2="896" y2="640"></line><line x1="1152" y1="512" x2="1024" y2="640"></line><line x1="1152" y1="512" x2="1280" y2="640"></line><line x1="1408" y1="512" x2="1280" y2="640"></line><line x1="1536" y1="512" x2="1408" y2="640"></line><line x1="0" y1="640" x2="128" y2="768"></line><line x1="256" y1="640" x2="128" y2="768"></line><line x1="384" y1="640" x2="256" y2="768"></line><line x1="512" y1="640" x2="384" y2="768"></line><line x1="512" y1="640" x2="640" y2="768"></line><line x1="640" y1="640" x2="768" y2="768"></line><line x1="896" y1="640" x2="768" y2="768"></line><line x1="1024" y1="640" x2="896" y2="768"></line><line x1="1152" y1="640" x2="1024" y2="768"></line><line x1="1152" y1="640" x2="1280" y2="768"></line><line x1="1280" y1="640" x2="1408" y2="768"></line><line x1="1536" y1="640" x2="1408" y2="768"></line><line x1="0" y1="768" x2="128" y2="896"></line><line x1="256" y1="768" x2="128" y2="896"></line><line x1="256" y1="768" x2="384" y2="896"></line><line x1="384" y1="768" x2="512" y2="896"></line><line x1="512" y1="768" x2="640" y2="896"></line><line x1="768" y1="768" x2="640" y2="896"></line><line x1="768" y1="768" x2="896" y2="896"></line><line x1="1024" y1="768" x2="896" y2="896"></line><line x1="1152" y1="768" x2="1024" y2="896"></line><line x1="1280" y1="768" x2="1152" y2="896"></line><line x1="1408" y1="768" x2="1280" y2="896"></line><line x1="1536" y1="768" x2="1408" y2="896"></line></g></svg>